<svg width="16" height="16" viewBox="0 0 16 16" fill="none" xmlns="http://www.w3.org/2000/svg">
<mask id="path-1-inside-1_2085_5659" fill="white">
<rect y="4" width="16" height="8" rx="1"/>
</mask>
<rect y="4" width="16" height="8" rx="1" fill="white" stroke="#50565F" stroke-width="4" mask="url(#path-1-inside-1_2085_5659)"/>
<path d="M4 7C4 7.55228 4.44772 8 5 8C5.55228 8 6 7.55228 6 7L4 7ZM4 5L4 7L6 7L6 5L4 5Z" fill="#50565F"/>
<path d="M7 7C7 7.55228 7.44772 8 8 8C8.55228 8 9 7.55228 9 7L7 7ZM7 5L7 7L9 7L9 5L7 5Z" fill="#50565F"/>
<path d="M10 8C10 8.55228 10.4477 9 11 9C11.5523 9 12 8.55228 12 8L10 8ZM10 5L10 8L12 8L12 5L10 5Z" fill="#50565F"/>
</svg>
