<svg width="24" height="24" viewBox="0 0 24 24" fill="none" xmlns="http://www.w3.org/2000/svg">
<mask id="path-1-inside-1_2015_2914" fill="white">
<rect y="7" width="24" height="10" rx="1"/>
</mask>
<rect y="7" width="24" height="10" rx="1" fill="white" stroke="#50565F" stroke-width="4" mask="url(#path-1-inside-1_2015_2914)"/>
<path d="M5 12C5 12.5523 5.44772 13 6 13C6.55228 13 7 12.5523 7 12L5 12ZM5 8L5 12L7 12L7 8L5 8Z" fill="#50565F"/>
<path d="M9 12C9 12.5523 9.44772 13 10 13C10.5523 13 11 12.5523 11 12L9 12ZM9 8L9 12L11 12L11 8L9 8Z" fill="#50565F"/>
<path d="M13 12C13 12.5523 13.4477 13 14 13C14.5523 13 15 12.5523 15 12L13 12ZM13 8L13 12L15 12L15 8L13 8Z" fill="#50565F"/>
<path d="M17 13C17 13.5523 17.4477 14 18 14C18.5523 14 19 13.5523 19 13L17 13ZM17 8L17 13L19 13L19 8L17 8Z" fill="#50565F"/>
</svg>
